<svg id="Layer_1" data-name="Layer 1" xmlns="http://www.w3.org/2000/svg" width="73.01" height="73.63" viewBox="0 0 73.01 73.63"><defs><style>.cls-1{fill:#2e72b8;}.cls-2{fill:#fbfbfb;fill-rule:evenodd;}</style></defs><g id="Group_2" data-name="Group 2"><path id="Path_5" data-name="Path 5" class="cls-1" d="M59.19,4.48h-48a8,8,0,0,0-8,8v48a8,8,0,0,0,8,8h48a8,8,0,0,0,8-8v-48A8,8,0,0,0,59.19,4.48Z"/><path id="Path_6" data-name="Path 6" class="cls-2" d="M57.19,36.49h-10v-8c0-2.21,1.79-2,4-2h4v-10h-8a12,12,0,0,0-12,12v8h-8v10h8v22h12v-22h6Z"/></g></svg>